<svg width="256" height="256" viewBox="0 0 256 256" fill="none" xmlns="http://www.w3.org/2000/svg">
<rect width="256" height="256" fill="#375BD1"/>
<path d="M181.462 134.485C181.462 135.981 182.296 137.351 183.624 138.038L213.163 153.314C215.825 154.691 219 152.759 219 149.761V87.2684C219 84.2904 215.862 82.3567 213.202 83.6952L183.664 98.5586C182.313 99.238 181.462 100.62 181.462 102.132V134.485Z" fill="white"/>
<path d="M110.951 79.6746C109.591 80.3504 108.731 81.738 108.731 83.2566V134.503C108.731 135.989 109.555 137.353 110.87 138.044L143.543 155.209C144.859 155.9 145.683 157.264 145.683 158.75V172.347C145.683 173.798 146.468 175.135 147.736 175.842L175.514 191.322C178.181 192.807 181.462 190.88 181.462 187.828V158.714C181.462 157.247 180.659 155.898 179.369 155.198L147.775 138.055C146.486 137.355 145.683 136.006 145.683 134.539V68.8682C145.683 65.8989 142.562 63.9647 139.903 65.2862L110.951 79.6746Z" fill="white"/>
<path d="M38.2198 60.261C36.8599 60.9368 36 62.3245 36 63.843V134.503C36 135.989 36.824 137.353 38.1396 138.044L70.8123 155.209C72.128 155.9 72.9519 157.264 72.9519 158.75V192.193C72.9519 193.693 73.791 195.066 75.1254 195.751L102.904 210.009C105.566 211.376 108.731 209.443 108.731 206.451V158.714C108.731 157.247 107.928 155.898 106.638 155.198L75.0443 138.055C73.7549 137.355 72.9519 136.006 72.9519 134.539V49.4547C72.9519 46.4854 69.8308 44.5511 67.1717 45.8726L38.2198 60.261Z" fill="white"/>
<path d="M181.462 134.485C181.462 135.981 182.296 137.351 183.624 138.038L213.163 153.314C215.825 154.691 219 152.759 219 149.761V87.2684C219 84.2904 215.862 82.3567 213.202 83.6952L183.664 98.5586C182.313 99.238 181.462 100.62 181.462 102.132V134.485Z" stroke="white" stroke-linejoin="round"/>
<path d="M110.951 79.6746C109.591 80.3504 108.731 81.738 108.731 83.2566V134.503C108.731 135.989 109.555 137.353 110.87 138.044L143.543 155.209C144.859 155.9 145.683 157.264 145.683 158.75V172.347C145.683 173.798 146.468 175.135 147.736 175.842L175.514 191.322C178.181 192.807 181.462 190.88 181.462 187.828V158.714C181.462 157.247 180.659 155.898 179.369 155.198L147.775 138.055C146.486 137.355 145.683 136.006 145.683 134.539V68.8682C145.683 65.8989 142.562 63.9647 139.903 65.2862L110.951 79.6746Z" stroke="white" stroke-linejoin="round"/>
<path d="M38.2198 60.261C36.8599 60.9368 36 62.3245 36 63.843V134.503C36 135.989 36.824 137.353 38.1396 138.044L70.8123 155.209C72.128 155.9 72.9519 157.264 72.9519 158.75V192.193C72.9519 193.693 73.791 195.066 75.1254 195.751L102.904 210.009C105.566 211.376 108.731 209.443 108.731 206.451V158.714C108.731 157.247 107.928 155.898 106.638 155.198L75.0443 138.055C73.7549 137.355 72.9519 136.006 72.9519 134.539V49.4547C72.9519 46.4854 69.8308 44.5511 67.1717 45.8726L38.2198 60.261Z" stroke="white" stroke-linejoin="round"/>
</svg>
