<svg width="256" height="256" viewBox="0 0 256 256" fill="none" xmlns="http://www.w3.org/2000/svg">
<path d="M178.128 134.569C178.128 136.02 178.914 137.357 180.183 138.063L207.054 153.023C209.721 154.508 213 152.58 213 149.528V87.4936C213 84.4625 209.76 82.5327 207.095 83.9764L180.223 98.5319C178.932 99.2311 178.128 100.581 178.128 102.049V134.569Z" fill="#fff"/>
<path d="M112.677 79.6473C111.376 80.3433 110.564 81.6989 110.564 83.1743V134.587C110.564 136.028 111.34 137.359 112.595 138.068L142.86 155.185C144.115 155.895 144.891 157.225 144.891 158.667V172.433C144.891 173.838 145.628 175.14 146.833 175.863L172.071 191.002C174.737 192.601 178.128 190.681 178.128 187.572V158.629C178.128 157.207 177.373 155.892 176.146 155.175L146.874 138.078C145.646 137.361 144.891 136.046 144.891 134.624V69.0899C144.891 66.068 141.669 64.1374 139.004 65.5629L112.677 79.6473Z" fill="#fff"/>
<path d="M45.1131 60.2337C43.8122 60.9297 43 62.2853 43 63.7607V134.587C43 136.028 43.7759 137.359 45.0309 138.068L75.296 155.185C76.551 155.895 77.3269 157.225 77.3269 158.667V192.276C77.3269 193.732 78.1181 195.073 79.3925 195.777L104.63 209.721C107.296 211.194 110.564 209.266 110.564 206.22V158.629C110.564 157.207 109.809 155.892 108.582 155.175L79.3095 138.078C78.0817 137.361 77.3269 136.046 77.3269 134.624V49.6764C77.3269 46.6544 74.1046 44.7239 71.4401 46.1494L45.1131 60.2337Z" fill="#fff"/>
<path d="M178.128 134.569C178.128 136.02 178.914 137.357 180.183 138.063L207.054 153.023C209.721 154.508 213 152.58 213 149.528V87.4936C213 84.4625 209.76 82.5327 207.095 83.9764L180.223 98.5319C178.932 99.2311 178.128 100.581 178.128 102.049V134.569Z" stroke="#fff" stroke-linejoin="round"/>
<path d="M112.677 79.6473C111.376 80.3433 110.564 81.6989 110.564 83.1743V134.587C110.564 136.028 111.34 137.359 112.595 138.068L142.86 155.185C144.115 155.895 144.891 157.225 144.891 158.667V172.433C144.891 173.838 145.628 175.14 146.833 175.863L172.071 191.002C174.737 192.601 178.128 190.681 178.128 187.572V158.629C178.128 157.207 177.373 155.892 176.146 155.175L146.874 138.078C145.646 137.361 144.891 136.046 144.891 134.624V69.0899C144.891 66.068 141.669 64.1374 139.004 65.5629L112.677 79.6473Z" stroke="#fff" stroke-linejoin="round"/>
<path d="M45.1131 60.2337C43.8122 60.9297 43 62.2853 43 63.7607V134.587C43 136.028 43.7759 137.359 45.0309 138.068L75.296 155.185C76.551 155.895 77.3269 157.225 77.3269 158.667V192.276C77.3269 193.732 78.1181 195.073 79.3925 195.777L104.63 209.721C107.296 211.194 110.564 209.266 110.564 206.22V158.629C110.564 157.207 109.809 155.892 108.582 155.175L79.3095 138.078C78.0817 137.361 77.3269 136.046 77.3269 134.624V49.6764C77.3269 46.6544 74.1046 44.7239 71.4401 46.1494L45.1131 60.2337Z" stroke="#fff" stroke-linejoin="round"/>
</svg>
